<?xml version="1.0" encoding="utf-8"?>
<!-- Generator: Adobe Illustrator 23.1.0, SVG Export Plug-In . SVG Version: 6.00 Build 0)  -->
<svg version="1.1"
	 id="svg2244" inkscape:version="1.0.2-2 (e86c870879, 2021-01-15)" sodipodi:docname="sistemasUNL_2.svg" xmlns:cc="http://creativecommons.org/ns#" xmlns:dc="http://purl.org/dc/elements/1.1/" xmlns:inkscape="http://www.inkscape.org/namespaces/inkscape" xmlns:rdf="http://www.w3.org/1999/02/22-rdf-syntax-ns#" xmlns:sodipodi="http://sodipodi.sourceforge.net/DTD/sodipodi-0.dtd" xmlns:svg="http://www.w3.org/2000/svg"
	 xmlns="http://www.w3.org/2000/svg" xmlns:xlink="http://www.w3.org/1999/xlink" x="0px" y="0px" viewBox="0 0 219 169.9"
	 style="enable-background:new 0 0 219 169.9;" xml:space="preserve">
<style type="text/css">
	.st0{fill:#D81F25;}
	.st1{fill:#188B40;}
</style>
<sodipodi:namedview  bordercolor="#666666" borderopacity="1.0" id="base" inkscape:current-layer="layer1" inkscape:cx="337.14286" inkscape:cy="717.14286" inkscape:document-rotation="0" inkscape:document-units="mm" inkscape:pageopacity="0.0" inkscape:pageshadow="2" inkscape:window-height="715" inkscape:window-maximized="1" inkscape:window-width="1366" inkscape:window-x="-8" inkscape:window-y="-8" inkscape:zoom="0.35" pagecolor="#ffffff" showgrid="false" units="px">
	</sodipodi:namedview>
<g id="layer1" inkscape:groupmode="layer" inkscape:label="Capa 1">
	<g id="g851" transform="matrix(0.26458333,0,0,0.26458333,-4.2064716,-104.83459)">
		<path id="path825" class="st0" d="M445.9,440.4C325,458.1,215.2,542.4,184.3,642c-12.3,39.5-11.9,40.7,16,40.7h23.4l7-30
			c26.3-108.6,130-193.3,260.3-212.2l24.7-3.7h-22.6C480.9,436.7,459.5,438.4,445.9,440.4L445.9,440.4z"/>
		<path id="path827" class="st0" d="M612.7,580.3c-173.2,74-406.1,128.7-485.5,110.2c-36.6-8.2-42.4-25.9-17.3-53.9
			c8.2-9.9,12.3-15.6,9-13.6c-79.8,55.9-74.4,89.2,14.4,88.8l38.3-0.4l4.5,30.4c4.5,32.1,18.5,74.4,25.5,79c2.5,1.2,16,1.2,30.4-0.4
			L258,818l-7.4-13.2c-11.1-19.3-25.5-69.9-23.9-85.1l1.2-13.2l55.5-11.9c116-23.9,240.9-64.2,331.7-110.2"/>
		<path id="path829" class="st1" d="M777.1,669.4c-2.7-6.4,0-3.3-31.8,12.5c-177.7,83.9-426.9,149.7-564.3,149.3
			c-51.8-0.4-74-5.3-87.2-19.3c-11.9-12.7-8.2-25.9,16-52.2l19.3-21l-25.9,18.1c-55.5,38.7-69.1,69.9-37.8,88
			c12.8,7.8,21.8,8.6,83.9,9l69.5,0.4l21,22.6c21,22.6,50.6,47.7,66.2,55.9c5.3,2.9,15.6,2.9,28.8,0.4c42.8-7.8,42.4-6.2,9.5-28.4
			c-31.3-21-68.3-55.5-64.2-60c1.6-1.2,23.4-7,48.9-12.3c141.1-30.4,303.5-87.2,417-145.6"/>
		<path id="path831" class="st1" d="M631.4,847.6c-9.1,4.9-33.7,15.6-55.5,24.3c-191.3,75.7-399.4,106.5-413.8,61.7
			c-2.1-6.6,0.8-13.2,10.7-25.9l14-17.3l-12.3,9c-24.7,18.5-30.4,24.3-36.6,35.8c-7.4,14.8-2.9,25.5,13.2,31.7
			c18.1,7,86.8,4.9,141.9-4.5l51.4-8.6l21.8,9c59.2,23.4,157.9,31.7,220.9,18.1c39.5-8.2,90.9-27.6,120.1-45.2
			c28.4-17.3,37.4-26.7,11.5-12.3c-52.6,29.2-144.4,46.9-208.9,39.9c-34.5-3.7-104.9-20.6-101.2-24.3c0.8-0.8,30.8-11.5,67-23.4
			c62.9-21.4,154.7-59.3,159.2-66.7C635.7,845.9,631.7,846.5,631.4,847.6L631.4,847.6z"/>
		<g id="g835">
			<path id="path833" class="st0" d="M630.2,597.7c-11.4,0-20.7-9.3-20.7-20.7c0-11.4,9.3-20.7,20.7-20.7c11.4,0,20.7,9.3,20.7,20.7
				C650.9,588.4,641.6,597.7,630.2,597.7z M630.2,564.4c-7,0-12.6,5.7-12.6,12.6s5.7,12.6,12.6,12.6c7,0,12.6-5.7,12.6-12.6
				S637.1,564.4,630.2,564.4z"/>
		</g>
		<g id="g839">
			<path id="path837" class="st1" d="M791.9,683.4c-14.4,0-26.1-11.7-26.1-26.1s11.7-26.1,26.1-26.1c14.4,0,26.1,11.7,26.1,26.1
				S806.3,683.4,791.9,683.4z M791.9,641c-9,0-16.4,7.3-16.4,16.4c0,9,7.3,16.4,16.4,16.4c9,0,16.4-7.3,16.4-16.4
				C808.2,648.3,800.9,641,791.9,641z"/>
		</g>
		<g id="g843">
			<path id="path841" class="st1" d="M646.9,860.3c-11.4,0-20.7-9.3-20.7-20.7c0-11.4,9.3-20.7,20.7-20.7c11.4,0,20.7,9.3,20.7,20.7
				C667.6,851,658.3,860.3,646.9,860.3z M646.9,826.9c-7,0-12.6,5.7-12.6,12.6c0,7,5.7,12.6,12.6,12.6c7,0,12.6-5.7,12.6-12.6
				C659.5,832.6,653.8,826.9,646.9,826.9z"/>
		</g>
		<path id="path845" class="st0" d="M223.8,682.7l-49.6,1.7c0,0,1.5-20.5,14.4-54.9L223.8,682.7z"/>
		<path id="path847" class="st0" d="M258,818l-54.6,5.7c0,0-5.8-8-6.2-8.8C196.8,814.1,258,818,258,818L258,818z"/>
		<path id="path849" class="st1" d="M360.9,916.1l11.4,8.6l-55,13.5c0,0-13.3-6.4-17.4-9.1C295.9,926.4,360.9,916.1,360.9,916.1z"/>
	</g>
</g>
</svg>
